<?xml version="1.0" encoding="UTF-8"?>
<svg viewBox="0 0 250 250" version="1.1" xmlns="http://www.w3.org/2000/svg" xmlns:xlink="http://www.w3.org/1999/xlink">
    <title>doodle_heat_left</title>
    <g id="Landings" stroke="none" stroke-width="1" fill="none" fill-rule="evenodd" opacity="0.796781994">
        <g id="Spark" transform="translate(-980.000000, -423.000000)" fill="#FF0000">
            <g id="Doodles" transform="translate(303.000000, 77.000000)">
                <path d="M720.571681,347.393608 C721.796546,348.04443 722.191951,349.96415 721.135951,350.360023 C719.350185,351.029362 718.21081,352.319571 717.127811,353.655087 L716.723177,354.156905 C716.31888,354.658599 715.91214,355.156547 715.471843,355.620396 C710.131789,361.24565 704.977249,367.020015 700.857303,373.62121 C695.854384,381.635735 692.217249,390.22682 689.394113,399.176939 C688.068762,403.378922 686.651843,407.555761 685.65887,411.854227 C685.528654,412.419091 684.716438,412.769939 685.073789,413.534201 C685.111843,413.616066 684.943573,413.799676 684.856762,413.926566 C684.579681,414.331794 680.449032,415.003083 680.031032,414.715388 C678.072438,413.367549 677.718059,412.631354 677.792978,409.736862 C678.177681,404.782311 679.481627,399.693269 680.922924,394.629956 C684.123627,383.382956 689.11287,372.968049 695.959627,363.42032 C700.74433,356.747786 706.294276,350.928396 713.863465,347.176083 C716.288816,345.973845 718.38714,346.231718 720.571681,347.393608 Z M705.31914,356.050769 C692.216654,369.20404 684.966167,385.269345 681.097735,403.018718 C685.605357,385.588032 692.994978,369.591727 705.31914,356.050769 Z M734.107308,363.033488 C734.612576,363.243759 734.806273,363.678478 734.781986,364.201794 C734.759477,364.690853 734.414734,364.918844 734.022603,365.148607 C732.625266,365.968429 730.938866,366.461032 730.53015,368.391868 C730.445445,368.790557 730.018958,369.262487 729.497104,369.280206 C728.995982,369.297926 729.446162,368.572607 728.682632,368.374739 C729.353757,370.330973 728.185657,371.179738 726.999194,372.188568 C725.878481,373.141878 725.470357,374.694107 724.40414,375.799805 C723.089731,377.164207 721.71905,378.649693 720.833498,380.210782 C720.155265,381.405667 718.785176,381.999862 718.483674,383.527283 C718.241405,384.754064 717.496238,385.997974 716.195453,386.65773 C715.651682,386.934155 715.664714,387.531302 715.462725,388.017998 C714.944425,389.266633 714.56651,390.628082 713.200568,391.320915 C712.990878,391.427823 712.726101,391.726101 712.737356,391.921016 C712.851086,393.798693 711.131514,394.696482 710.487638,396.16661 C710.189097,396.84763 709.501387,397.081528 708.749111,397.11992 C708.098127,397.153587 706.98393,397.507977 706.881455,397.309519 C706.797668,397.146056 706.70771,396.986514 706.616662,396.828096 L706.434615,396.511929 C705.983389,395.721112 705.589555,394.911774 705.888096,393.734312 C707.286617,388.21055 710.114462,383.453452 713.313705,378.85583 C716.544935,374.213318 720.387463,370.111251 724.601983,366.354715 C726.232702,364.901715 728.013877,363.627091 730.017181,362.700952 C731.445912,362.040014 732.783422,362.48182 734.107308,363.033488 Z M748.042395,374.369543 C747.947271,374.908787 747.287826,375.075515 747.308835,375.639827 C747.513026,375.865895 747.662074,375.734058 747.806509,375.559198 L747.91476,375.424908 C748.078208,375.226132 748.251808,375.072539 748.507508,375.41247 C748.963868,376.020504 748.782958,376.958497 748.483582,377.164284 C747.360773,377.934966 747.267401,379.340498 746.345344,380.216697 C746.064058,380.483696 746.584028,381.383796 745.584939,381.380298 C745.035207,381.379132 744.614445,382.473361 743.924654,381.599494 C744.124822,382.264658 743.37317,382.45762 743.269293,382.793992 C742.979254,383.726156 742.233439,383.861987 741.43335,384.168044 C742.382835,384.99061 741.963241,385.320569 741.317218,386.113986 C740.316961,387.341714 739.401324,388.743166 738.136706,389.591965 C736.519022,390.677448 736.204472,392.668279 734.662654,393.733359 C733.348431,394.641038 731.400441,394.553593 730.324903,393.623178 C729.614825,393.008454 729.73405,392.427909 729.953679,391.862464 L730.039323,391.651093 C730.083074,391.545724 730.127152,391.440802 730.166752,391.336201 C731.626286,387.479877 734.250646,384.443204 737.213482,381.682858 C739.355805,379.687946 741.796921,378.066717 744.192517,376.392437 C744.969262,375.849112 745.186354,376.198892 745.281477,376.948004 C745.287942,376.999125 745.289751,377.052455 745.290123,377.107102 L745.290143,377.274111 C745.293356,377.527886 745.332608,377.790346 745.701072,377.980437 C746.007451,377.435947 746.306244,376.91186 746.598618,376.384275 C746.668647,376.257771 746.801704,376.091043 746.766689,375.991939 C746.376274,374.883719 746.535591,374.65986 748.042395,374.369543 Z M736.702266,384.299795 C734.33935,386.738927 732.150925,389.306311 731.061964,392.618727 C732.66681,389.656091 734.729182,387.012338 736.702266,384.299795 Z M716.462007,377.577072 C713.009833,381.927802 709.906549,386.50298 708.061994,391.805839 C710.359692,386.772907 713.371755,382.16229 716.462007,377.577072 Z M741.917138,378.746455 C741.47245,379.241394 741.082035,379.783553 740.342055,380.717465 C741.403004,380.162481 742.260867,380.243514 742.765664,379.564358 C742.969917,379.28978 743.464209,378.973812 743.034694,378.585557 C742.68688,378.271338 742.219433,378.410667 741.917138,378.746455 Z M720.833498,372.014327 C719.932544,373.062731 719.031591,374.111135 718.130637,375.15954 C718.224227,375.237506 718.317225,375.316653 718.410815,375.395209 C719.328947,374.36098 720.24767,373.327342 721.165802,372.293114 L720.833498,372.014327 Z" id="doodle_heat_left" style="mix-blend-mode: hard-light;"></path>
            </g>
        </g>
    </g>
</svg>