<?xml version="1.0" encoding="UTF-8"?>
<svg viewBox="0 0 250 250" version="1.1" xmlns="http://www.w3.org/2000/svg" xmlns:xlink="http://www.w3.org/1999/xlink">
    <title>doodle_light</title>
    <g id="Landings" stroke="none" stroke-width="1" fill="none" fill-rule="evenodd" opacity="0.796781994">
        <g id="Spark" transform="translate(-972.000000, -97.000000)" fill="#FF0000">
            <g id="Doodles" transform="translate(303.000000, 77.000000)">
                <path d="M716.322809,29.5819278 C716.316952,30.8117656 713.969749,31.7326442 715.864497,33.2384456 C715.99628,33.3449316 716.019708,33.8818608 715.895246,34.0003451 C714.365098,35.4701513 715.226081,37.3314059 715.154332,38.9931868 C715.016692,42.2552566 715.196796,45.5293249 715.091369,48.7943943 C714.984478,52.0924594 715.3564,55.3650279 714.444168,58.7035877 C713.788181,61.1017714 714.091282,63.8674067 714.376812,66.4200701 C714.684306,69.1527098 713.280084,71.6228841 713.549507,74.255037 C713.924357,77.8920574 712.217033,81.3236049 712.716345,84.9471271 C712.73538,85.0806095 712.760273,85.2365889 712.711952,85.3535735 C711.184733,89.0790822 711.338479,93.1645435 710.338392,97.005537 C709.963542,98.4468469 708.878528,99.8281648 709.806867,101.443452 C710.916774,101.936887 711.69283,100.966515 712.627025,100.791038 C715.464755,100.257108 718.1912,99.1277571 721.121178,99.0917619 C721.961661,97.4254816 723.718769,98.635822 725.016101,97.7959328 C726.1099,97.0895259 727.850901,96.7535702 729.309301,96.7295734 C730.770629,96.7070764 731.862965,95.3332575 733.363828,95.8356913 C734.819299,94.2039064 736.938078,95.1637799 738.750828,94.3613857 C741.992692,92.9260749 745.566942,92.2256673 748.962554,91.0423233 C750.930515,90.3554139 752.242488,89.2650577 753.29236,88.2061973 C753.796065,85.827511 752.924832,84.1252354 752.059456,82.641931 C749.690289,78.5789668 747.287444,74.4905059 744.452643,70.7679968 C740.015946,64.9442647 735.949705,58.8640665 731.839537,52.8123645 C728.476139,47.8615173 725.235739,42.8236817 721.966054,37.8068432 C720.147447,35.0187109 718.77251,31.91562 716.322809,29.5819278 M749.210083,100.47766 C748.448985,101.241597 747.805364,101.885308 747.162992,102.529019 C747.083008,102.456382 747.003024,102.381241 746.92304,102.308604 C746.763072,102.16834 746.481878,101.88656 746.458133,101.90785 C744.103602,103.890329 740.621797,102.377484 738.30351,104.536545 C737.908589,104.245998 737.45243,103.549689 736.965027,103.941676 C736.058958,104.669295 735.281613,104.963598 734.366796,104.070669 C734.199329,103.90661 733.960627,103.934162 733.898139,104.225961 C733.558207,105.812695 732.465925,105.499606 731.277412,105.544691 C730.175133,105.588524 729.115344,106.308628 728.005566,106.626726 C725.034908,107.479581 721.848045,107.445767 718.988615,108.71816 C718.067549,109.127681 717.495163,107.593545 716.389134,108.594177 C715.876736,109.058801 714.821947,109.676212 713.677175,109.421984 C712.763608,109.220355 711.927525,110.014348 710.916476,110.149603 C709.073094,110.395065 707.573394,111.529699 706.924773,113.460831 C706.764805,113.30053 706.604837,113.140228 706.446119,112.981179 C705.110135,113.430775 704.765204,114.133346 705.881231,115.207867 C705.558796,115.529723 705.23761,115.851578 704.913924,116.17719 C704.673972,115.961785 704.43402,115.74638 704.202816,115.539741 C703.028051,116.089526 703.315494,118.065743 701.962014,118.17595 C700.842237,118.268624 699.856184,118.56919 698.987607,119 C697.891576,118.519095 698.87638,117.386966 698.095285,116.908566 C697.656623,117.187841 697.414171,117.895422 696.475609,117.349395 C696.378128,116.500298 695.979458,115.44331 697.006753,114.532847 C695.843235,113.676236 694.548493,113.442046 693.101282,113.427017 C691.580336,113.413242 690.136874,113.020002 689.530745,111.25418 C689.073336,109.920422 687.046241,109.959245 687,108.110768 C687.081234,107.996804 687.327435,107.649901 687.553639,107.28797 C688.419717,105.897855 689.419517,104.845877 691.300392,104.420076 C694.247303,103.75257 696.975509,102.034338 699.92867,101.504592 C702.418173,101.056249 702.628131,99.3067079 703.108035,97.7149639 C703.439219,96.620405 703.656675,95.3793206 703.771652,94.2559576 C704.127831,90.7819231 705.38758,87.439386 705.230111,83.9052384 C706.629832,81.5933899 705.463815,78.9321343 706.274903,76.4900408 C707.064745,74.1180792 706.097438,71.4843754 706.669824,69.1249374 C707.727113,64.7717492 707.109736,60.4173087 707.244709,56.0716347 C707.378433,51.7497555 707.273454,47.4216145 707.273454,43.0972305 C707.273454,38.6588822 707.750858,34.1529067 707.14098,29.7997185 C706.527352,25.4252403 706.814795,21.1058658 706.564845,16.8378378 C707.600888,15.799635 708.564446,14.8340688 709.39678,14 C710.070395,14.6750197 710.751509,15.3575535 711.480114,16.0864245 C712.428675,14.7401422 713.650931,14.8353212 714.438273,15.1934949 C717.680126,16.6662651 720.504563,18.5635839 722.334198,21.9274111 C725.12614,27.0645738 728.295508,31.998855 731.363645,36.9844827 C733.715676,40.8104291 736.238922,44.5424489 738.798411,48.1855514 C742.096503,52.8781279 745.205882,57.7460342 749.003874,62.0967176 C750.493577,63.8036783 751.348406,66.1080127 753.18304,67.4693233 C754.097858,68.1493524 752.718133,69.6922545 754.481531,69.8012094 C755.612555,69.8713413 755.457586,71.3979628 756.219934,72.004103 C757.098509,72.7029174 757.487181,73.8087474 758.208287,74.5614131 C758.925644,75.3103218 758.965636,76.3911047 759.820465,77.0110207 C760.621556,77.5908614 760.991482,78.5576799 761.563867,79.3341404 C762.901101,81.1525608 764.049621,83.0774314 765.111909,85.0486391 C766.382906,87.4093295 766.249182,89.8351423 764.969438,92.1845614 C764.816968,92.4638367 764.653251,92.8470576 764.499532,92.9923308 C763.699691,93.753763 764.274576,95.1751867 763.500981,95.6322965 C761.581364,96.768183 759.969186,98.5252379 757.779623,99.0462179 C756.684841,99.3054555 755.781272,99.7713318 754.880202,100.298574 C753.995378,100.818301 752.98183,100.165824 752.040768,100.924751 C751.385899,101.451993 750.141147,101.5885 749.210083,100.47766" id="doodle_light" style="mix-blend-mode: hard-light;" transform="translate(726.500000, 66.500000) scale(1, -1) rotate(40.000000) translate(-726.500000, -66.500000) "></path>
            </g>
        </g>
    </g>
</svg>