<?xml version="1.0" encoding="UTF-8"?>
<svg viewBox="0 0 200 200" version="1.1" xmlns="http://www.w3.org/2000/svg" xmlns:xlink="http://www.w3.org/1999/xlink">
    <title>doodle_heat_right</title>
    <g id="Landings" stroke="none" stroke-width="1" fill="none" fill-rule="evenodd" opacity="0.796781994">
        <g id="Spark" transform="translate(-1213.000000, -327.000000)" fill="#FF0000">
            <g id="Doodles" transform="translate(303.000000, 77.000000)">
                <path d="M952.787842,251.024065 C954.012706,251.674887 954.408112,253.594608 953.352112,253.990481 C951.566346,254.659819 950.426971,255.950029 949.343972,257.285545 L948.939337,257.787363 C948.535041,258.289056 948.128301,258.787004 947.688004,259.250853 C942.34795,264.876108 937.193409,270.650472 933.073463,277.251667 C928.070544,285.266192 924.433409,293.857277 921.610274,302.807396 C920.284923,307.009379 918.868004,311.186218 917.875031,315.484684 C917.744815,316.049548 916.932598,316.400396 917.28995,317.164658 C917.328004,317.246523 917.159733,317.430133 917.072923,317.557023 C916.795842,317.962252 912.665193,318.63354 912.247193,318.345845 C910.288598,316.998006 909.93422,316.261811 910.009139,313.367319 C910.393842,308.412769 911.697788,303.323726 913.139085,298.260413 C916.339788,287.013413 921.329031,276.598506 928.175788,267.050777 C932.96049,260.378243 938.510436,254.558853 946.079625,250.80654 C948.504977,249.604303 950.603301,249.862175 952.787842,251.024065 Z M937.535301,259.681226 C924.432815,272.834497 917.182328,288.899803 913.313896,306.649175 C917.821517,289.218489 925.211139,273.222184 937.535301,259.681226 Z M966.323469,266.663945 C966.828737,266.874217 967.022433,267.308935 966.998147,267.832251 C966.975638,268.32131 966.630894,268.549301 966.238764,268.779064 C964.841427,269.598887 963.155027,270.091489 962.74631,272.022325 C962.661605,272.421014 962.235118,272.892944 961.713264,272.910663 C961.212142,272.928383 961.662323,272.203064 960.898793,272.005196 C961.569917,273.96143 960.401817,274.810195 959.215355,275.819026 C958.094642,276.772335 957.686518,278.324564 956.620301,279.430262 C955.305892,280.794664 953.935211,282.28015 953.049658,283.841239 C952.371426,285.036125 951.001337,285.630319 950.699834,287.157741 C950.457566,288.384521 949.712399,289.628431 948.411614,290.288188 C947.867843,290.564612 947.880875,291.161759 947.678886,291.648455 C947.160586,292.89709 946.782671,294.258539 945.416728,294.951372 C945.207039,295.05828 944.942262,295.356558 944.953516,295.551473 C945.067246,297.42915 943.347675,298.326939 942.703798,299.797068 C942.405257,300.478088 941.717547,300.711985 940.965272,300.750377 C940.314287,300.784044 939.20009,301.138435 939.097615,300.939976 C939.013828,300.776514 938.923871,300.616972 938.832822,300.458553 L938.650776,300.142386 C938.199549,299.35157 937.805715,298.542231 938.104256,297.364769 C939.502778,291.841007 942.330622,287.083909 945.529866,282.486287 C948.761096,277.843775 952.603624,273.741708 956.818143,269.985172 C958.448863,268.532172 960.230038,267.257549 962.233341,266.331409 C963.662072,265.670471 964.999582,266.112278 966.323469,266.663945 Z M980.258556,278 C980.163432,278.539244 979.503986,278.705972 979.524995,279.270284 C979.729187,279.496352 979.878234,279.364515 980.022669,279.189656 L980.130921,279.055365 C980.294369,278.856589 980.467969,278.702996 980.723669,279.042927 C981.180029,279.650961 980.999119,280.588954 980.699742,280.794742 C979.576934,281.565423 979.483561,282.970956 978.561505,283.847154 C978.280219,284.114153 978.800189,285.014253 977.8011,285.010755 C977.251367,285.00959 976.830606,286.103818 976.140814,285.229951 C976.340982,285.895116 975.589331,286.088078 975.485454,286.424449 C975.195414,287.356613 974.449599,287.492444 973.649511,287.798501 C974.598996,288.621067 974.179401,288.951026 973.533378,289.744444 C972.533122,290.972171 971.617485,292.373623 970.352867,293.222422 C968.735183,294.307906 968.420633,296.298736 966.878814,297.363816 C965.564592,298.271495 963.616601,298.18405 962.541063,297.253636 C961.830985,296.638911 961.95021,296.058366 962.169839,295.492921 L962.255483,295.28155 C962.299235,295.176181 962.343313,295.071259 962.382913,294.966658 C963.842447,291.110334 966.466807,288.073662 969.429643,285.313315 C971.571966,283.318404 974.013081,281.697174 976.408678,280.022894 C977.185423,279.479569 977.402514,279.829349 977.497638,280.578461 C977.504102,280.629583 977.505912,280.682912 977.506284,280.73756 L977.506304,280.904568 C977.509517,281.158344 977.548769,281.420803 977.917232,281.610895 C978.223612,281.066404 978.522405,280.542317 978.814778,280.014732 C978.884808,279.888229 979.017864,279.7215 978.982849,279.622396 C978.592434,278.514176 978.751752,278.290317 980.258556,278 Z M968.918427,287.930252 C966.555511,290.369384 964.367085,292.936768 963.278125,296.249184 C964.88297,293.286548 966.945342,290.642795 968.918427,287.930252 Z M948.678168,281.207529 C945.225994,285.558259 942.12271,290.133437 940.278154,295.436296 C942.575852,290.403364 945.587915,285.792748 948.678168,281.207529 Z M974.133299,282.376913 C973.688611,282.871851 973.298196,283.41401 972.558216,284.347923 C973.619165,283.792938 974.477027,283.873971 974.981824,283.194815 C975.186077,282.920238 975.68037,282.60427 975.250855,282.216014 C974.903041,281.901795 974.435593,282.041124 974.133299,282.376913 Z M953.049658,275.644784 C952.148705,276.693188 951.247751,277.741593 950.346798,278.789997 C950.440388,278.867963 950.533386,278.94711 950.626976,279.025666 C951.545107,277.991438 952.463831,276.9578 953.381962,275.923571 L953.049658,275.644784 Z" id="doodle_heat_right" style="mix-blend-mode: hard-light;" transform="translate(945.500080, 284.217657) scale(-1, 1) translate(-945.500080, -284.217657) "></path>
            </g>
        </g>
    </g>
</svg>